# xmcd
#
# Track frame offsets:
#	150
#	20097
#	42117
#	58032
#	74582
#	93595
#	119375
#	137040
#	154610
#	171550
#
# Disc length: 2499 seconds
#
# Revision: 0
# Processed by: cddbd v1.5.2PL0 Copyright (c) Steve Scherf et al.
# Submitted via: EasyCDDAExtractor 12.0.0.1
#
DISCID=9009c10a
DTITLE=Константин Ундров - Мой кореш
DYEAR=1995
DGENRE=Шансон
TTITLE0=Вспоминай
TTITLE1=Ах, причал
TTITLE2=Ростовский вальс
TTITLE3=Ростовские девчонки
TTITLE4=Три вокзала
TTITLE5=Мой кореш
TTITLE6=Город на юге России
TTITLE7=Здрасьте, земляки
TTITLE8=Ростовские дворы
TTITLE9=Всем привет
EXTD=
EXTT0=
EXTT1=
EXTT2=
EXTT3=
EXTT4=
EXTT5=
EXTT6=
EXTT7=
EXTT8=
EXTT9=
PLAYORDER=
